<?xml version="1.0" standalone="no"?>
<!DOCTYPE svg PUBLIC "-//W3C//DTD SVG 20010904//EN"
 "http://www.w3.org/TR/2001/REC-SVG-20010904/DTD/svg10.dtd">
<svg version="1.0" xmlns="http://www.w3.org/2000/svg"
 width="200.000000pt" height="200.000000pt" viewBox="0 0 200.000000 200.000000"
 preserveAspectRatio="xMidYMid meet">

<g transform="translate(0.000000,200.000000) scale(0.100000,-0.100000)"
fill="#14121d" stroke="none">
<path d="M13 1852 c-4 -20 -7 -98 -7 -172 2 -155 20 -239 79 -367 l37 -78 23
45 c13 25 45 76 72 115 l50 70 -54 72 -54 73 62 -40 c34 -22 94 -50 133 -62
39 -12 73 -23 75 -25 2 -2 -23 -31 -56 -66 -137 -142 -196 -278 -209 -477 -11
-170 37 -317 140 -427 l53 -57 1 95 c1 145 51 296 141 428 32 47 32 61 1 61
-24 0 -77 44 -95 81 -28 54 -14 143 28 178 10 8 17 8 22 2 10 -17 128 -80 187
-100 l55 -19 79 39 c153 76 309 74 466 -6 l70 -35 75 31 c41 18 97 46 123 64
l49 33 19 -22 c27 -28 42 -88 33 -129 -12 -53 -40 -85 -91 -109 l-48 -22 28
-41 c90 -131 142 -289 144 -433 l1 -94 53 57 c211 227 187 628 -55 885 -40 43
-73 81 -73 84 0 3 10 6 23 6 31 0 170 63 215 96 l36 28 -43 -62 c-24 -34 -50
-67 -57 -72 -10 -9 -1 -27 39 -83 29 -40 61 -91 71 -115 10 -23 22 -42 27 -42
10 0 64 133 91 226 19 66 23 103 23 224 0 80 -3 157 -7 171 l-8 27 -91 -45
c-106 -52 -287 -113 -409 -138 l-86 -17 -73 37 c-103 51 -204 75 -320 75 -119
0 -197 -18 -312 -72 l-89 -41 -117 28 c-135 31 -274 80 -385 136 l-77 39 -8
-38z"/>
<path d="M880 1156 c-129 -48 -250 -151 -323 -276 -82 -142 -117 -334 -82
-456 21 -75 66 -145 120 -189 102 -84 282 -132 453 -121 227 14 382 97 454
244 27 54 33 79 36 152 13 271 -169 559 -405 641 -66 22 -198 25 -253 5z m-13
-278 c35 -39 43 -64 43 -139 0 -122 -46 -239 -94 -239 -19 0 -60 54 -75 99
-18 56 -24 162 -11 210 22 83 92 118 137 69z m366 2 c79 -62 53 -319 -37 -374
-25 -16 -70 38 -90 105 -20 65 -21 179 -2 223 26 63 82 83 129 46z"/>
</g>
</svg>
